<?xml version="1.0" encoding="UTF-8" standalone="no"?>
<!DOCTYPE svg PUBLIC "-//W3C//DTD SVG 1.1//EN" "http://www.w3.org/Graphics/SVG/1.1/DTD/svg11.dtd">
<svg width="100%" height="100%" viewBox="0 0 874 874" version="1.1" xmlns="http://www.w3.org/2000/svg" xmlns:xlink="http://www.w3.org/1999/xlink" xml:space="preserve" xmlns:serif="http://www.serif.com/" style="fill-rule:evenodd;clip-rule:evenodd;stroke-linejoin:round;stroke-miterlimit:2;">
    <g transform="matrix(1,0,0,1,-1848,-924)">
        <rect id="Plan-de-travail6" serif:id="Plan de travail6" x="1848" y="924" width="874" height="874" style="fill:none;"/>
        <g id="Plan-de-travail61" serif:id="Plan de travail6">
            <g transform="matrix(1,0,0,1,360,764)">
                <circle cx="1925" cy="597" r="437" style="fill:rgb(247,241,233);"/>
            </g>
            <g transform="matrix(1.226562,0,0,1.226562,1658.077061,735.211638)">
                <path d="M265.208,476.681C255.849,461.582 256.296,461.444 246.988,446.182C235.195,426.845 257.937,430.903 266.498,430.463C342.479,426.566 413.944,367.39 477.588,392.275C508.926,404.529 508.341,410.478 514.204,407.042C563.259,378.289 591.788,381.9 645.427,400.715C722.765,427.843 725.862,429.395 772.481,430.715C776.531,430.83 780.818,435.895 777.237,442.369C744.03,502.407 708.734,550.164 658.256,586.142C544.299,667.363 374.782,655.541 265.208,476.681ZM384.088,511.507C384.947,534.335 383.155,540.01 405.456,544.717C430.857,550.078 435.268,547.154 435.386,533.5C435.861,478.748 434.792,471.803 417.471,470.896C392.651,469.595 392.626,469.144 390.643,469.967C385.33,472.171 383.089,479.745 384.088,511.507ZM746.352,472.379C747.389,470.93 758.581,455.286 758.217,453.52C757.86,451.791 756.915,452.941 736.555,457.737C733.742,458.4 732.019,458.715 730.104,484.501C729.649,490.639 740.365,480.043 746.352,472.379ZM273.227,468.7C282.72,481.838 292.35,489.826 292.124,484.507C292.037,482.482 291.273,464.559 288.666,459.409C287.795,457.689 287.408,457.92 265.476,452.838C265.319,452.802 263.115,452.291 264.401,454.531C268.951,462.452 272.472,467.598 273.227,468.7ZM340.051,508.555C340.276,509.899 338.251,523.746 363.436,530.726C378.286,534.842 377.209,527.953 377.173,519.501C376.981,473.321 374.973,468.68 367.458,467.806C341.925,464.838 341.33,465.462 340.275,467.364C336.375,474.394 339.699,505.278 340.051,508.555ZM586.637,519.499C586.569,540.068 584.132,549.512 603.423,547.034C640.047,542.329 637.325,533.187 637.946,514.51C638.667,492.821 638.893,469.819 630.494,469.781C630.086,469.779 601.409,470.889 598.508,471.536C585.742,474.387 586.64,497.462 586.637,519.499ZM655.544,467.851C646.292,469.28 645.424,473.916 645.159,520.493C645.142,523.417 642.166,537.078 660.376,530.158C684.313,521.061 682.253,516.143 683.356,490.493C684.16,471.796 683.06,465.589 678.499,465.755C676.656,465.823 672.729,465.966 655.544,467.851ZM693.134,469.401C692.814,471.074 687.832,508.941 692.635,511.231C694.552,512.145 717.783,506.627 721.125,487.447C722.184,481.37 724.182,464.065 721.536,461.465C720.235,460.186 696.671,462.647 694.733,465.657C694.557,465.931 694.615,465.935 693.134,469.401ZM299.835,477.475C300.765,484.663 298.905,500.534 323.509,510.477C334.002,514.717 331.612,505.277 330.243,483.507C329.248,467.669 329.019,464.492 322.505,463.464C302.865,460.364 299.824,459.284 299.368,465.484C299.161,468.301 299.765,476.518 299.835,477.475ZM507.933,545.534C508.005,542.732 508.422,526.377 508.074,510.502C507.363,477.986 500.961,471.792 457.497,472.247C452.366,472.301 438.972,472.441 442.128,534.524C442.867,549.041 442.689,555.661 476.523,558.03C503.742,559.936 506.666,557.608 507.933,545.534ZM578.318,489.533C578.214,489.079 576.675,477.462 570.32,473.831C568.459,472.768 564.997,470.79 543.549,472.885C515.018,475.673 513.216,483.945 514.189,543.512C514.437,558.696 520.588,559.171 537.496,558.398C570.156,556.903 578.755,554.033 579.666,539.51C581.509,510.145 578.93,493.486 578.318,489.533ZM725.551,505.511C725.464,504.034 725.584,503.935 725.458,503.922C725.103,503.887 724.837,504.396 724.483,504.361C715.69,510.837 716.503,511.99 700.74,519.947C671.431,534.742 672.328,536.802 659.427,540.264C630.636,547.989 631.83,552.273 602.422,557.067C561.776,563.695 562.386,568.079 531.496,568.106C489.787,568.143 464.112,568.409 446.511,562.467C427.645,556.097 403.576,556.677 387.44,548.613C374.705,542.249 355.165,540.308 340.723,530.201C329.601,522.416 323.747,521.807 315.731,517.091C300.41,508.078 299.36,505.147 297.424,503.725C289.234,497.708 316.874,529.735 317.55,530.454C324.653,538.011 374.558,596.607 452.577,616.175C617.97,657.656 717.855,515 725.551,505.511ZM692.532,453.818C696.06,453.401 718.925,450.703 736.433,447.123C738.169,446.768 769.183,440.426 757.536,440.392C723.835,440.295 701.321,431.197 630.369,406.891C564.936,384.476 545.837,403.559 515.416,418.308C505.218,423.252 493.324,404.572 457.41,397.994C403.152,388.057 332.032,440.809 264.476,440.423C264.286,440.422 261.533,441.855 265.467,442.585C281.158,445.496 292.145,449.291 322.548,453.029C457.357,469.607 482.793,452.256 509.746,474.168C512.804,476.654 514.405,469.871 526.589,465.783C548.059,458.579 603.849,464.927 692.532,453.818Z" style="fill:rgb(155,120,82);"/>
            </g>
        </g>
    </g>
</svg>
